<svg width="98" height="32" viewBox="0 0 98 32" fill="none" xmlns="http://www.w3.org/2000/svg">
<path d="M31.7045 7.90723V0H17.6809C17.6809 0 17.7497 15.0741 17.8457 18.5109C17.9418 21.948 19.6518 25.3444 22.6901 28.0304C25.7288 30.716 31.7038 31.7039 31.7038 31.7039V23.7266C31.7038 23.7266 28.7083 23.7936 26.9627 21.8091C25.217 19.8246 24.8014 17.8972 24.7208 15.788C24.6403 13.6786 24.7208 7.90723 24.7208 7.90723H31.7045Z" fill="#017752"/>
<path d="M0 7.90461V0H14.0189C14.0189 0 13.95 15.0691 13.8541 18.5047C13.7581 21.9408 12.0486 25.336 9.01112 28.0211C5.9736 30.7058 0.000690462 31.6934 0.000690462 31.6934V23.7187C0.000690462 23.7187 2.99507 23.7857 4.74014 21.8019C6.4852 19.8181 6.90088 17.8912 6.98122 15.7827C7.06153 13.6741 6.98122 7.90461 6.98122 7.90461H0Z" fill="#017752"/>
<path d="M49.5613 25.3519C49.25 25.3519 49.0122 25.2741 48.8479 25.1185C48.6837 24.9542 48.6015 24.7164 48.6015 24.4051V9.96946H43.4135C43.1022 9.96946 42.8644 9.89164 42.7001 9.736C42.5359 9.57171 42.4537 9.33393 42.4537 9.02264C42.4537 8.71136 42.5359 8.47358 42.7001 8.30929C42.8644 8.14501 43.1022 8.06286 43.4135 8.06286H55.7091C56.0204 8.06286 56.2538 8.14501 56.4095 8.30929C56.5738 8.47358 56.6559 8.71136 56.6559 9.02264C56.6559 9.33393 56.5738 9.57171 56.4095 9.736C56.2538 9.89164 56.0204 9.96946 55.7091 9.96946H50.5081V24.4051C50.5081 24.6991 50.426 24.9326 50.2617 25.1055C50.0974 25.2698 49.8639 25.3519 49.5613 25.3519ZM58.557 25.3519C57.9172 25.3519 57.5972 25.032 57.5972 24.3921V13.4454C57.5972 12.8142 57.9172 12.4986 58.557 12.4986C59.1882 12.4986 59.5038 12.8142 59.5038 13.4454V14.7943C59.9967 14.0421 60.6452 13.4714 61.4493 13.0823C62.2621 12.6932 63.2046 12.4986 64.2768 12.4986C64.9167 12.4986 65.2366 12.8142 65.2366 13.4454C65.2366 14.0853 64.9167 14.4052 64.2768 14.4052C62.7636 14.4052 61.605 14.7078 60.8008 15.3131C59.9967 15.9097 59.5644 16.7269 59.5038 17.7645V24.3921C59.5038 25.032 59.1882 25.3519 58.557 25.3519ZM71.3684 25.3519C69.9503 25.3519 68.8998 25.0104 68.2167 24.3273C67.5336 23.6442 67.192 22.5936 67.192 21.1756C67.192 19.7575 67.5293 18.7069 68.2037 18.0239C68.8868 17.3408 69.9417 16.9992 71.3684 16.9992H76.9844C76.9498 16.0135 76.7077 15.3347 76.2581 14.9629C75.8085 14.5911 75.0432 14.4052 73.9624 14.4052H72.4579C71.5154 14.4052 70.815 14.483 70.3567 14.6387C69.9071 14.7943 69.6045 15.0667 69.4488 15.4558C69.3278 15.7671 69.1937 15.9876 69.0468 16.1173C68.9084 16.2383 68.6922 16.2988 68.3983 16.2988C68.0783 16.2988 67.8276 16.2124 67.646 16.0394C67.4731 15.8579 67.4212 15.6201 67.4903 15.3261C67.6979 14.349 68.208 13.6357 69.0208 13.186C69.8336 12.7278 70.9793 12.4986 72.4579 12.4986H73.9624C75.6485 12.4986 76.8936 12.9007 77.6978 13.7048C78.5019 14.509 78.904 15.7541 78.904 17.4402V24.3921C78.904 25.032 78.5884 25.3519 77.9572 25.3519C77.3173 25.3519 76.9974 25.032 76.9974 24.3921V23.575C76.1068 24.7596 74.7147 25.3519 72.821 25.3519H71.3684ZM71.3684 23.4453H72.821C73.5214 23.4453 74.1656 23.3762 74.7536 23.2378C75.3415 23.0995 75.8344 22.8574 76.2322 22.5115C76.6299 22.1656 76.885 21.6814 76.9974 21.0588V18.9058H71.3684C70.4778 18.9058 69.8768 19.0658 69.5656 19.3857C69.2543 19.697 69.0986 20.2936 69.0986 21.1756C69.0986 22.0662 69.2543 22.6671 69.5656 22.9784C69.8768 23.2897 70.4778 23.4453 71.3684 23.4453ZM88.2894 25.3519C86.6033 25.3519 85.3539 24.9499 84.5411 24.1457C83.7369 23.3416 83.3349 22.1008 83.3349 20.4233V17.4402C83.3349 15.7368 83.7369 14.4874 84.5411 13.6919C85.3539 12.8877 86.6033 12.49 88.2894 12.4986H90.4165C92.1026 12.4986 93.3477 12.9007 94.1519 13.7048C94.956 14.509 95.3581 15.7541 95.3581 17.4402V20.3974C95.3581 22.0835 94.956 23.3329 94.1519 24.1457C93.3477 24.9499 92.1026 25.3519 90.4165 25.3519H88.2894ZM85.2415 20.4233C85.2415 21.5733 85.4576 22.3645 85.89 22.7968C86.3223 23.2292 87.1221 23.4453 88.2894 23.4453H90.4165C91.5838 23.4453 92.3793 23.2292 92.803 22.7968C93.2353 22.3645 93.4515 21.5647 93.4515 20.3974V17.4402C93.4515 16.2729 93.2353 15.4774 92.803 15.0537C92.3793 14.6214 91.5838 14.4052 90.4165 14.4052H88.2894C87.5112 14.4052 86.9016 14.496 86.4607 14.6776C86.0197 14.8592 85.7041 15.1704 85.5138 15.6114C85.3323 16.0524 85.2415 16.662 85.2415 17.4402V20.4233Z" fill="#141413"/>
<text
  x="102"
  y="21"
  font-family="Inter, Arial, sans-serif"
  font-size="9"
  letter-spacing="0.3"
  fill="#666">
  AI Travel Planner
</text>
</svg>
